<?xml version="1.0" encoding="UTF-8" standalone="no"?>
<!-- Created with Inkscape (http://www.inkscape.org/) -->

<svg
   version="1.1"
   id="svg1"
   width="499.35471"
   height="322.25861"
   viewBox="0 0 499.35471 322.25861"
   sodipodi:docname="arcanepadLogo.svg"
   inkscape:version="1.3 (0e150ed, 2023-07-21)"
   xmlns:inkscape="http://www.inkscape.org/namespaces/inkscape"
   xmlns:sodipodi="http://sodipodi.sourceforge.net/DTD/sodipodi-0.dtd"
   xmlns="http://www.w3.org/2000/svg"
   xmlns:svg="http://www.w3.org/2000/svg">
  <defs
     id="defs1">
    <inkscape:path-effect
       effect="fillet_chamfer"
       id="path-effect11"
       is_visible="true"
       lpeversion="1"
       nodesatellites_param="F,0,0,1,0,0,0,1 @ F,0,0,1,0,0,0,1 @ F,0,1,1,0,2,0,1 @ F,0,0,1,0,0,0,1 @ F,0,0,1,0,0,0,1 @ F,0,0,1,0,0,0,1 @ F,0,0,1,0,0,0,1 @ F,0,1,1,0,2,0,1 @ F,0,0,1,0,0,0,1 @ F,0,0,1,0,0,0,1 @ F,0,0,1,0,0,0,1 @ F,0,0,1,0,0,0,1 @ F,0,1,1,0,2,0,1 @ F,0,0,1,0,0,0,1 @ F,0,0,1,0,0,0,1 @ F,0,0,1,0,0,0,1 @ F,0,0,1,0,0,0,1 @ F,0,1,1,0,2,0,1 @ F,0,0,1,0,0,0,1 @ F,0,0,1,0,0,0,1"
       radius="2"
       unit="px"
       method="auto"
       mode="F"
       chamfer_steps="1"
       flexible="false"
       use_knot_distance="true"
       apply_no_radius="true"
       apply_with_radius="true"
       only_selected="true"
       hide_knots="false" />
    <inkscape:path-effect
       effect="fillet_chamfer"
       id="path-effect6"
       is_visible="true"
       lpeversion="1"
       nodesatellites_param="F,0,0,1,0,5.4227401,0,1 @ F,0,0,1,0,0,0,1 @ F,0,0,1,0,0,0,1 @ F,0,0,1,0,0,0,1 @ F,0,0,1,0,0,0,1 @ F,0,0,1,0,0,0,1 @ F,0,0,1,0,0,0,1 @ F,0,0,1,0,0,0,1 @ F,0,0,1,0,0,0,1 @ F,0,0,1,0,4.7062412,0,1"
       radius="0"
       unit="px"
       method="auto"
       mode="F"
       chamfer_steps="1"
       flexible="false"
       use_knot_distance="true"
       apply_no_radius="true"
       apply_with_radius="true"
       only_selected="false"
       hide_knots="false" />
    <inkscape:path-effect
       effect="fillet_chamfer"
       id="path-effect20"
       is_visible="true"
       lpeversion="1"
       nodesatellites_param="F,0,0,1,0,0,0,1 @ F,0,0,1,0,0,0,1 @ F,0,1,1,0,2,0,1 @ F,0,0,1,0,0,0,1 @ F,0,0,1,0,0,0,1 @ F,0,0,1,0,0,0,1 @ F,0,0,1,0,0,0,1 @ F,0,1,1,0,2,0,1 @ F,0,0,1,0,0,0,1 @ F,0,0,1,0,0,0,1 @ F,0,0,1,0,0,0,1 @ F,0,0,1,0,0,0,1 @ F,0,1,1,0,2,0,1 @ F,0,0,1,0,0,0,1 @ F,0,0,1,0,0,0,1 @ F,0,0,1,0,0,0,1 @ F,0,0,1,0,0,0,1 @ F,0,1,1,0,2,0,1 @ F,0,0,1,0,0,0,1 @ F,0,0,1,0,0,0,1"
       radius="2"
       unit="px"
       method="auto"
       mode="F"
       chamfer_steps="1"
       flexible="false"
       use_knot_distance="true"
       apply_no_radius="true"
       apply_with_radius="true"
       only_selected="true"
       hide_knots="false" />
    <inkscape:path-effect
       effect="fillet_chamfer"
       id="path-effect18"
       is_visible="true"
       lpeversion="1"
       nodesatellites_param="F,0,0,1,0,5.4227401,0,1 @ F,0,0,1,0,0,0,1 @ F,0,0,1,0,0,0,1 @ F,0,0,1,0,0,0,1 @ F,0,0,1,0,0,0,1 @ F,0,0,1,0,0,0,1 @ F,0,0,1,0,0,0,1 @ F,0,0,1,0,0,0,1 @ F,0,0,1,0,0,0,1 @ F,0,0,1,0,4.7062412,0,1"
       radius="0"
       unit="px"
       method="auto"
       mode="F"
       chamfer_steps="1"
       flexible="false"
       use_knot_distance="true"
       apply_no_radius="true"
       apply_with_radius="true"
       only_selected="false"
       hide_knots="false" />
    <inkscape:path-effect
       effect="fillet_chamfer"
       id="path-effect16"
       is_visible="true"
       lpeversion="1"
       nodesatellites_param="F,0,0,1,0,5.4227401,0,1 @ F,0,0,1,0,0,0,1 @ F,0,0,1,0,0,0,1 @ F,0,0,1,0,0,0,1 @ F,0,0,1,0,0,0,1 @ F,0,0,1,0,0,0,1 @ F,0,0,1,0,0,0,1 @ F,0,0,1,0,0,0,1 @ F,0,0,1,0,0,0,1 @ F,0,0,1,0,0,0,1 @ F,0,0,1,0,4.7062412,0,1"
       radius="0"
       unit="px"
       method="auto"
       mode="F"
       chamfer_steps="1"
       flexible="false"
       use_knot_distance="true"
       apply_no_radius="true"
       apply_with_radius="true"
       only_selected="false"
       hide_knots="false" />
    <inkscape:path-effect
       effect="fillet_chamfer"
       id="path-effect12"
       is_visible="true"
       lpeversion="1"
       nodesatellites_param="F,0,0,1,0,5.4227401,0,1 @ F,0,0,1,0,0,0,1 @ F,0,0,1,0,0,0,1 @ F,0,0,1,0,0,0,1 @ F,0,0,1,0,0,0,1 @ F,0,0,1,0,0,0,1 @ F,0,0,1,0,0,0,1 @ F,0,0,1,0,0,0,1 @ F,0,0,1,0,0,0,1 @ F,0,0,1,0,4.7062412,0,1"
       radius="0"
       unit="px"
       method="auto"
       mode="F"
       chamfer_steps="1"
       flexible="false"
       use_knot_distance="true"
       apply_no_radius="true"
       apply_with_radius="true"
       only_selected="false"
       hide_knots="false" />
    <inkscape:path-effect
       effect="fillet_chamfer"
       id="path-effect10"
       is_visible="true"
       lpeversion="1"
       nodesatellites_param="F,0,0,1,0,5.4227401,0,1 @ F,0,0,1,0,0,0,1 @ F,0,0,1,0,0,0,1 @ F,0,0,1,0,0,0,1 @ F,0,0,1,0,0,0,1 @ F,0,0,1,0,0,0,1 @ F,0,0,1,0,0,0,1 @ F,0,0,1,0,0,0,1 @ F,0,0,1,0,0,0,1 @ F,0,0,1,0,0,0,1 @ F,0,0,1,0,4.7062412,0,1"
       radius="0"
       unit="px"
       method="auto"
       mode="F"
       chamfer_steps="1"
       flexible="false"
       use_knot_distance="true"
       apply_no_radius="true"
       apply_with_radius="true"
       only_selected="false"
       hide_knots="false" />
    <inkscape:path-effect
       effect="fillet_chamfer"
       id="path-effect8"
       is_visible="true"
       lpeversion="1"
       nodesatellites_param="F,0,0,1,0,0,0,1 @ F,0,0,1,0,0,0,1 @ F,0,1,1,0,2,0,1 @ F,0,0,1,0,0,0,1 @ F,0,0,1,0,0,0,1 @ F,0,0,1,0,0,0,1 @ F,0,0,1,0,0,0,1 @ F,0,1,1,0,2,0,1 @ F,0,0,1,0,0,0,1 @ F,0,0,1,0,0,0,1 @ F,0,0,1,0,0,0,1 @ F,0,0,1,0,0,0,1 @ F,0,1,1,0,2,0,1 @ F,0,0,1,0,0,0,1 @ F,0,0,1,0,0,0,1 @ F,0,0,1,0,0,0,1 @ F,0,0,1,0,0,0,1 @ F,0,1,1,0,2,0,1 @ F,0,0,1,0,0,0,1 @ F,0,0,1,0,0,0,1"
       radius="2"
       unit="px"
       method="auto"
       mode="F"
       chamfer_steps="1"
       flexible="false"
       use_knot_distance="true"
       apply_no_radius="true"
       apply_with_radius="true"
       only_selected="true"
       hide_knots="false" />
    <inkscape:path-effect
       effect="fillet_chamfer"
       id="path-effect7"
       is_visible="true"
       lpeversion="1"
       nodesatellites_param="F,0,0,1,0,5.4227401,0,1 @ F,0,0,1,0,0,0,1 @ F,0,0,1,0,0,0,1 @ F,0,0,1,0,0,0,1 @ F,0,0,1,0,0,0,1 @ F,0,0,1,0,0,0,1 @ F,0,0,1,0,0,0,1 @ F,0,0,1,0,0,0,1 @ F,0,0,1,0,0,0,1 @ F,0,0,1,0,0,0,1 @ F,0,0,1,0,4.7062412,0,1"
       radius="0"
       unit="px"
       method="auto"
       mode="F"
       chamfer_steps="1"
       flexible="false"
       use_knot_distance="true"
       apply_no_radius="true"
       apply_with_radius="true"
       only_selected="false"
       hide_knots="false" />
    <inkscape:path-effect
       effect="fillet_chamfer"
       id="path-effect5"
       is_visible="true"
       lpeversion="1"
       nodesatellites_param="F,0,0,1,0,5.4227401,0,1 @ F,0,0,1,0,0,0,1 @ F,0,0,1,0,0,0,1 @ F,0,0,1,0,0,0,1 @ F,0,0,1,0,0,0,1 @ F,0,0,1,0,0,0,1 @ F,0,0,1,0,0,0,1 @ F,0,0,1,0,0,0,1 @ F,0,0,1,0,0,0,1 @ F,0,0,1,0,4.7062412,0,1"
       radius="0"
       unit="px"
       method="auto"
       mode="F"
       chamfer_steps="1"
       flexible="false"
       use_knot_distance="true"
       apply_no_radius="true"
       apply_with_radius="true"
       only_selected="false"
       hide_knots="false" />
    <inkscape:path-effect
       effect="mirror_symmetry"
       start_point="140.50583,30.07458"
       end_point="140.50583,192.33742"
       center_point="140.50583,111.206"
       id="path-effect4"
       is_visible="true"
       lpeversion="1.2"
       lpesatellites=""
       mode="free"
       discard_orig_path="false"
       fuse_paths="true"
       oposite_fuse="false"
       split_items="false"
       split_open="false"
       link_styles="false" />
    <inkscape:path-effect
       effect="mirror_symmetry"
       start_point="133.06532,20.66153"
       end_point="133.06532,180.92067"
       center_point="133.06532,100.7911"
       id="path-effect2"
       is_visible="true"
       lpeversion="1.2"
       lpesatellites=""
       mode="free"
       discard_orig_path="false"
       fuse_paths="true"
       oposite_fuse="false"
       split_items="false"
       split_open="false"
       link_styles="false" />
    <inkscape:path-effect
       effect="bspline"
       id="path-effect1"
       is_visible="true"
       lpeversion="1.3"
       weight="33.333333"
       steps="2"
       helper_size="0"
       apply_no_weight="true"
       apply_with_weight="true"
       only_selected="false"
       uniform="false" />
  </defs>
  <sodipodi:namedview
     id="namedview1"
     pagecolor="#ffffff"
     bordercolor="#000000"
     borderopacity="0.25"
     inkscape:showpageshadow="2"
     inkscape:pageopacity="0.0"
     inkscape:pagecheckerboard="0"
     inkscape:deskcolor="#d1d1d1"
     showgrid="false"
     inkscape:zoom="0.85810353"
     inkscape:cx="262.20612"
     inkscape:cy="351.35621"
     inkscape:window-width="2560"
     inkscape:window-height="1371"
     inkscape:window-x="0"
     inkscape:window-y="0"
     inkscape:window-maximized="1"
     inkscape:current-layer="g1">
    <inkscape:page
       x="-5.3114859e-06"
       y="9.1705238e-07"
       width="499.35471"
       height="322.25861"
       id="page13"
       margin="0"
       bleed="0" />
  </sodipodi:namedview>
  <g
     inkscape:groupmode="layer"
     inkscape:label="Image"
     id="g1"
     transform="translate(-633.09351,73.096786)">
    <rect
       style="opacity:1;fill:#000000;fill-opacity:1;stroke-width:120.572"
       id="rect1"
       width="110.77256"
       height="207.26073"
       x="308.58368"
       y="-415.42743"
       ry="4.3423152" />
    <path
       style="opacity:1;fill:#f9f9f9;fill-opacity:1;stroke:#000000;stroke-width:40.4229;paint-order:stroke markers fill"
       d="m 108.2643,39.834072 c -4.0304,4.706283 -8.991078,11.179495 -18.849961,27.678335 -12.89122,21.573454 -34.216042,58.160483 -44.967376,79.884763 -10.751335,21.72428 -16.174532,27.12551 -8.651618,33.70899 46.315851,40.53208 28.455754,-19.82035 81.023305,-20.86915 5.49139,-0.10956 10.9061,0.0619 16.36271,0 52.56737,1.05746 34.70745,61.40123 81.0233,20.86915 7.52291,-6.58348 2.09971,-11.98471 -8.65162,-33.70899 C 194.80171,125.67289 173.47688,89.085861 160.58567,67.512407 150.34225,50.370052 145.38658,44.050648 141.26811,39.29096 c -1.70066,-1.965445 -5.20964,-3.567582 -7.80865,-3.597388 -4.54897,-0.05217 -11.43539,-0.117616 -16.21093,-0.101283 -2.99128,0.01023 -7.03618,1.967056 -8.98423,4.241783 z"
       id="path1"
       sodipodi:nodetypes="csscssssscc"
       inkscape:path-effect="#path-effect6"
       inkscape:original-d="m 111.83468,35.752641 c -5.0126,5.754171 -9.52912,10.18631 -22.420341,31.759766 -12.89122,21.573454 -34.216042,58.160483 -44.967376,79.884763 -10.751335,21.72428 -16.174532,27.12551 -8.651618,33.70899 46.315851,40.53208 28.455754,-19.82035 81.023305,-20.86915 5.49139,-0.10956 10.9061,0.0619 16.36271,0 52.56737,1.05746 34.70745,61.40123 81.0233,20.86915 7.52291,-6.58348 2.09971,-11.98471 -8.65162,-33.70899 C 194.80171,125.67289 173.47688,89.085861 160.58567,67.512407 147.69445,45.938951 143.17792,41.506812 138.16533,35.752641 c 0,0 -25.92865,-0.366531 -26.33065,0 z"
       transform="translate(238.96996,-430.49786)" />
    <path
       id="path2"
       style="opacity:1;fill:#000000;fill-opacity:1;stroke-width:129.211"
       inkscape:transform-center-x="-0.6020912"
       inkscape:transform-center-y="-11.177042"
       d="m 121.97591,95.057789 c -2.24094,0 -4.04587,1.804938 -4.04587,4.045878 l 0,9.503103 a 2,2 135 0 1 -2,2 l -9.5015,0 c -2.24094,0 -4.04587,1.80333 -4.04587,4.04427 v 6.36696 c 0,2.24093 1.80493,4.04427 4.04587,4.04427 h 9.5015 a 2,2 45 0 1 2,2 v 9.50311 c 0,2.24094 1.80493,4.04426 4.04587,4.04426 h 6.36537 c 2.24094,0 4.04586,-1.80332 4.04586,-4.04426 v -9.50311 a 2,2 135 0 1 2,-2 h 9.50311 c 2.24094,0 4.04428,-1.80334 4.04428,-4.04427 v -6.36696 c 0,-2.24094 -1.80334,-4.04427 -4.04428,-4.04427 h -9.50311 a 2,2 45 0 1 -2,-2 v -9.503103 c 0,-2.24094 -1.80492,-4.045878 -4.04586,-4.045878 z"
       inkscape:path-effect="#path-effect11"
       inkscape:original-d="m 121.97591,95.057789 c -2.24094,0 -4.04587,1.804938 -4.04587,4.045878 v 11.503103 h -11.5015 c -2.24094,0 -4.04587,1.80333 -4.04587,4.04427 v 6.36696 c 0,2.24093 1.80493,4.04427 4.04587,4.04427 h 11.5015 v 11.50311 c 0,2.24094 1.80493,4.04426 4.04587,4.04426 h 6.36537 c 2.24094,0 4.04586,-1.80332 4.04586,-4.04426 v -11.50311 h 11.50311 c 2.24094,0 4.04428,-1.80334 4.04428,-4.04427 v -6.36696 c 0,-2.24094 -1.80334,-4.04427 -4.04428,-4.04427 H 132.38714 V 99.103667 c 0,-2.24094 -1.80492,-4.045878 -4.04586,-4.045878 z"
       transform="matrix(1.1514603,0,0,1.1514603,220.45689,-458.65494)"
       sodipodi:nodetypes="sscsssscsssscsssscsss" />
    <circle
       style="opacity:1;fill:#f9f9f9;fill-opacity:1;stroke-width:77.1845"
       id="circle2"
       cx="363.96997"
       cy="-230.96553"
       r="11.134087" />
    <path
       id="text20"
       style="font-size:85.8943px;font-family:Alata;-inkscape-font-specification:'Alata, Normal';text-align:end;direction:rtl;text-orientation:upright;text-anchor:end;stroke-width:114.11;fill:#f9f9f9"
       d="m 699.43455,163.34951 26.55528,55.21099 h -9.67693 l -4.72594,-10.80215 h -25.28003 l -4.72594,10.80215 h -9.37687 l 26.40526,-55.21099 z m -3.75075,23.47968 -6.00119,13.35265 h 18.60369 l -5.92618,-13.27764 -3.22564,-7.57651 h -0.15003 z m 62.4874,31.73131 -11.10222,-20.85415 q -3.45069,0.15003 -6.15122,0.15003 h -2.10042 v 20.70412 h -8.17663 v -55.13598 h 12.5275 q 9.52689,0 15.67812,3.9758 6.15122,3.90077 6.15122,12.75253 0,5.55111 -2.62552,9.60191 -2.55051,3.9758 -7.65152,6.15123 l 13.12761,22.65451 z m -14.0278,-27.53048 q 7.35147,0 10.052,-3.15062 2.77556,-3.22565 2.77556,-7.65153 0,-9.82696 -13.12761,-9.82696 h -5.02601 v 20.62911 z m 57.31131,28.05558 q -8.5517,0 -14.85295,-3.82576 -6.22624,-3.82576 -9.5269,-10.20203 -3.30066,-6.45128 -3.30066,-14.17782 0,-8.17663 3.5257,-14.62791 3.60072,-6.45128 10.052,-10.052 6.45129,-3.67573 14.62792,-3.67573 3.67573,0 6.82635,0.82516 3.22565,0.75015 5.32607,1.80036 2.10042,0.9752 2.77554,1.65033 l -3.67573,7.50149 q -4.57591,-4.05081 -11.92737,-4.05081 -5.17603,0 -9.37687,2.55051 -4.20083,2.55051 -6.60131,7.27645 -2.40047,4.72594 -2.40047,10.95218 0,5.70113 2.10041,10.35206 2.17543,4.65092 6.30126,7.35146 4.12581,2.70054 9.82695,2.70054 6.60132,0 12.75254,-3.75075 l 2.47549,7.12642 q -1.65033,1.5003 -6.0762,2.92559 -4.35087,1.35026 -8.85177,1.35026 z m 43.80859,-55.73609 26.55528,55.21099 h -9.67693 l -4.72594,-10.80215 h -25.28003 l -4.72594,10.80215 h -9.37687 l 26.40526,-55.21099 z m -3.75075,23.47968 -6.00119,13.35265 h 18.60369 l -5.92618,-13.27764 -3.22563,-7.57651 h -0.15003 z m 34.95692,-23.40467 h 13.27764 q 16.65332,0 23.25463,7.87657 6.67633,7.87657 6.67633,18.75374 0,7.5765 -2.85057,14.02778 -2.85057,6.37628 -9.45188,10.42708 -6.5263,4.05081 -17.17842,4.05081 h -13.72773 z m 14.62791,47.7095 q 10.35206,0 15.00298,-5.85117 4.72594,-5.92618 4.72594,-14.85295 0,-8.70173 -4.72594,-14.17782 -4.72594,-5.47609 -15.00298,-5.47609 h -6.22623 v 40.35803 z m 36.90731,-47.7095 h 24.15481 v 7.35147 h -15.82815 v 15.22803 h 12.75254 v 7.50149 h -12.75254 v 17.62851 H 954.635 v 7.42648 h -26.63031 z m 35.10694,0 h 12.1524 q 10.27703,0 15.00302,4.42589 4.80092,4.35087 4.80092,12.00238 0,8.85177 -5.17602,13.5777 -5.17602,4.72594 -15.37803,4.72594 h -2.9256 v 20.40407 h -8.47669 z m 11.62735,27.30544 q 6.60131,0 9.22683,-2.92558 2.62553,-2.92559 2.62553,-7.0514 0,-4.42589 -2.55051,-7.20144 -2.55059,-2.77555 -8.55174,-2.77555 h -3.90077 v 19.95397 z m 44.18372,-27.38045 26.5554,55.21099 h -9.677 l -4.7259,-10.80215 h -25.2801 l -4.726,10.80215 h -9.37693 l 26.40543,-55.21099 z m -3.7507,23.47968 -6.0013,13.35265 h 18.6038 l -5.9262,-13.27764 -3.2257,-7.57651 h -0.15 z m 34.957,-23.40467 h 13.2776 q 16.6533,0 23.2546,7.87657 6.6764,7.87657 6.6764,18.75374 0,7.5765 -2.8506,14.02778 -2.8506,6.37628 -9.4519,10.42708 -6.5263,4.05081 -17.1784,4.05081 h -13.7277 z m 14.6279,47.7095 q 10.3521,0 15.0029,-5.85117 4.726,-5.92618 4.726,-14.85295 0,-8.70173 -4.726,-14.17782 -4.7259,-5.47609 -15.0029,-5.47609 h -6.2263 v 40.35803 z M 840.15624,-43.020566 c -2.00841,0 -3.625,1.616594 -3.625,3.625 V -4.4365821 C 825.58904,13.948997 809.4346,41.709071 800.39647,59.971621 c -4.2343,8.555891 -7.51313,13.427448 -10.08789,20.582031 -1.28737,3.577287 -2.54601,8.603604 -1.29101,14.431641 1.255,5.828047 4.97925,10.523697 8.16601,13.312497 10.82423,9.47254 19.48278,15.79458 31.74805,15.84961 2.59605,0.0117 5.17545,-0.44174 7.59961,-1.17187 v 3.41602 c 0,2.00839 1.61659,3.625 3.625,3.625 h 85.23047 c 2.0084,0 3.625,-1.61661 3.625,-3.625 v -3.41407 c 2.4247,0.73025 5.00301,1.18384 7.59961,1.17188 12.26453,-0.0565 20.92209,-6.37921 31.74609,-15.85157 3.18676,-2.7888 6.91297,-7.48445 8.16797,-13.312497 1.25501,-5.828037 -0.006,-10.854353 -1.29297,-14.431641 C 972.65765,73.39907 969.38077,68.527513 965.14647,59.971621 956.1087,41.709747 939.95389,13.950982 929.01171,-4.4346291 V -39.395566 c 0,-2.008406 -1.6166,-3.625 -3.625,-3.625 z m 36.14258,17.132812 c 3.98697,-0.01363 9.73734,0.04239 13.53515,0.08594 2.16984,0.02488 5.0997,1.361057 6.51954,3.001953 3.43839,3.973733 7.575,9.250817 16.12695,23.56249967 10.76252,18.01108633 28.56501,48.55635333 37.54101,66.69335933 8.97599,18.137007 13.50528,22.646211 7.22461,28.142578 -38.66784,33.839124 -23.75747,-16.540983 -67.64453,-17.423828 -4.55557,0.05168 -9.07554,-0.09147 -13.66015,0 -43.88721,0.875615 -28.97671,51.262952 -67.64453,17.423828 -6.28068,-5.496367 -1.75334,-10.005571 7.22265,-28.142578 8.976,-18.137006 26.7785,-48.682273 37.54102,-66.69335933 8.23091,-13.77442967 12.37341,-19.17827467 15.73828,-23.10742167 1.62637,-1.899107 5.00266,-3.534469 7.5,-3.542969 z m 6.47265,127.574214 a 9.2955437,9.2955437 0 0 1 9.29493,9.29493 9.2955437,9.2955437 0 0 1 -9.29493,9.29687 9.2955437,9.2955437 0 0 1 -9.29687,-9.29687 9.2955437,9.2955437 0 0 1 9.29687,-9.29493 z m -2.55754,-89.414951 c -2.15427,0 -3.88939,1.735128 -3.88939,3.889395 v 11.058194 h -11.05665 c -2.15427,0 -3.88939,1.733582 -3.88939,3.887848 v 6.120703 c 0,2.154257 1.73512,3.887849 3.88939,3.887849 h 11.05665 v 11.0582 c 0,2.154267 1.73512,3.887839 3.88939,3.887839 h 6.11917 c 2.15427,0 3.88938,-1.733572 3.88938,-3.887839 v -11.0582 h 11.0582 c 2.15427,0 3.88786,-1.733592 3.88786,-3.887849 v -6.120703 c 0,-2.154266 -1.73359,-3.887848 -3.88786,-3.887848 h -11.0582 V 16.160904 c 0,-2.154267 -1.73511,-3.889395 -3.88938,-3.889395 z" />
    <text
       xml:space="preserve"
       style="font-style:normal;font-variant:normal;font-weight:normal;font-stretch:normal;font-size:85.8943px;font-family:Alata;-inkscape-font-specification:'Alata, Normal';font-variant-ligatures:normal;font-variant-caps:normal;font-variant-numeric:normal;font-variant-east-asian:normal;text-align:end;direction:rtl;text-orientation:upright;text-anchor:end;opacity:1;fill:#000000;fill-opacity:1;stroke:none;stroke-width:130.659"
       x="595.05823"
       y="-247.11313"
       id="text13"><tspan
         sodipodi:role="line"
         id="tspan13"
         x="595.05823"
         y="-247.11313"
         style="font-style:normal;font-variant:normal;font-weight:normal;font-stretch:normal;font-size:85.8943px;font-family:Alata;-inkscape-font-specification:'Alata, Normal';font-variant-ligatures:normal;font-variant-caps:normal;font-variant-numeric:normal;font-variant-east-asian:normal;fill:#000000;stroke:none;stroke-width:130.659">ARCADEPAD</tspan></text>
  </g>
</svg>
