<?xml version="1.0" encoding="UTF-8"?>
<!-- Created with Inkscape (http://www.inkscape.org/) -->
<svg width="6.9945mm" height="7.7903mm" version="1.1" viewBox="0 0 6.9945 7.7903" xmlns="http://www.w3.org/2000/svg">


 <g transform="translate(-67.204 -82.285)">
  <path id="arcanepadLogo" d="m67.204 89.911c2.7e-4 -0.08924 0.0801-0.33263 0.17696-0.54086l0.17627-0.3786h1.0343l-0.0446 0.22283c-0.0246 0.12255-0.10793 0.36594-0.18524 0.54086l-0.14068 0.31803h-0.50888c-0.47982 0-0.50881-0.0093-0.50814-0.16225zm5.9318 0.07211c-0.0716-0.09127-0.30751-0.75114-0.30751-0.86019 0-0.09872 0.98373-0.07008 1.0605 0.03087 0.086 0.11302 0.30971 0.71402 0.30971 0.83173 0 0.1224-0.96648 0.12021-1.0627-0.0025zm-2.9036-1.7833c-2.0305-0.03254-2.3411-0.05201-2.3241-0.14574 0.0115-0.0595 0.0703-0.24609 0.13217-0.41466l0.11251-0.30649h5.0797l0.13381 0.3786c0.0737 0.20823 0.14837 0.41917 0.16619 0.46875 0.0242 0.06746-0.092 0.08598-0.4622 0.07362-0.27196-0.0092-1.5492-0.03343-2.8382-0.05408zm-1.7301-1.7503c2.6e-4 -0.01 0.0906-0.26142 0.20064-0.55889l0.20005-0.54086 0.45909-0.02175c0.25249-0.01196 0.48544 0.0046 0.51767 0.03683 0.0536 0.05364-0.18141 0.80054-0.31862 1.0126-0.0375 0.05786-0.23765 0.09014-0.55889 0.09014-0.27531 0-0.50028-0.0082-0.49994-0.01803zm3.0386-0.79326c-0.16501-0.44621-0.29974-0.83563-0.29943-0.86538 1e-3 -0.09574 0.91472-0.06092 0.9968 0.03798 0.0783 0.0943 0.59028 1.4606 0.59028 1.5752 0 0.03493-0.22221 0.06351-0.49383 0.06351h-0.49383zm-2.2059-1.2736c-0.0223-0.03608 0.0232-0.21456 0.10137-0.39663l0.14183-0.33103h0.47131c0.53111 0 0.54744 0.02314 0.3553 0.50334l-0.11595 0.28992h-0.45666c-0.25116 0-0.47491-0.02953-0.4972-0.06561zm1.7151-0.05729c-0.0251-0.07124-0.0868-0.23234-0.13708-0.35801-0.0503-0.12566-0.0726-0.24736-0.0495-0.27043 0.0231-0.02306 0.24913-0.04194 0.50236-0.04194 0.45134 0 0.46232 0.0046 0.55794 0.23437 0.20994 0.50445 0.19987 0.52054-0.34025 0.54418-0.41581 0.0182-0.49452 0.0023-0.53349-0.10817zm-1.2504-1.1908c0-0.14486 0.23934-0.73763 0.32084-0.79457 0.12725-0.08898 1.0129-0.06187 1.1418 0.03495 0.10662 0.08002 0.34021 0.61862 0.34021 0.7843 0 0.03467-0.40565 0.06305-0.90144 0.06305-0.65986 0-0.90145-0.02352-0.90145-0.08773z" fill="cyan"/>
 </g>


<style>
#arcanepadLogo{
    animation: logoAnimation 2s infinite linear, shadowAnimation 2s infinite linear;
    filter: url(#coolShadow);
}

@keyframes logoAnimation{
  40%{
      fill: black;
  }
  80%{
      fill: white;
  }
  100%{
      fill: cyan;
  }
}

</style>

</svg>
